<svg width="96" height="96" viewBox="0 0 96 96" fill="none" xmlns="http://www.w3.org/2000/svg">
<path d="M13.3086 36.8417C10.884 20.3317 29.8647 10.3756 42.5254 21.8905H42.5264C43.102 22.4139 43.9184 22.9839 44.3428 23.2762C44.6056 23.4573 44.846 23.6181 45.0195 23.7333C45.1069 23.7913 45.1791 23.8393 45.2305 23.8729C45.2559 23.8896 45.2762 23.9033 45.291 23.913C45.2985 23.9178 45.305 23.9217 45.3096 23.9247C45.3118 23.9261 45.314 23.9276 45.3154 23.9286L45.3174 23.9296L45.3184 23.9305L48.2969 25.8632L51.1035 23.6874H51.1045L51.1055 23.6864C51.1066 23.6855 51.1082 23.6841 51.1104 23.6825C51.1146 23.6792 51.1209 23.6741 51.1289 23.6678C51.1451 23.6553 51.1692 23.6374 51.1992 23.6141C51.2594 23.5674 51.3454 23.5003 51.4502 23.4188C51.6597 23.2559 51.9449 23.0335 52.2461 22.7977C52.7992 22.3647 53.5504 21.7738 53.8887 21.4862L53.918 21.4608C57.6773 18.2147 62.5868 16.6212 67.5361 17.0399V17.0389C71.9377 17.4421 76.0114 19.5388 78.8975 22.8866V22.8876C81.8201 26.3181 83.2445 30.7779 82.8506 35.2675L82.8486 35.2802C82.4253 40.2538 80.192 45.1431 76.8115 49.954C73.444 54.7463 69.1542 59.161 64.9648 63.2235C59.5567 68.1567 53.4185 73.3306 47.7559 78.6669C46.4666 77.6364 44.8938 76.2633 43.2412 74.7557C41.2763 72.9632 39.2972 71.0754 37.7021 69.538C36.2076 68.0974 34.8913 66.8093 34.4307 66.3885H34.4316C25.9427 58.6071 18.093 50.7212 14.2686 40.9686C13.8482 39.8967 13.543 38.4379 13.3086 36.8417Z" stroke="black" stroke-width="10"/>
<path d="M57.665 76.6576C57.704 76.4779 57.8204 76.3191 57.8049 76.127C57.7333 75.4692 58.4211 75.5274 58.7603 75.1927C59.429 74.5328 62.7922 70.9952 63.427 70.8419L63.3787 70.8722L63.4754 70.7162L63.5563 70.7104L63.5255 70.7575L63.4171 70.7546C63.2629 70.9014 63.2739 70.9837 63.2353 71.2067C63.6035 71.2534 63.3175 70.8704 64.1183 70.7997C62.4462 72.5707 59.5022 75.0234 57.665 76.6576Z" fill="black" fill-opacity="0.937255"/>
</svg>
