<svg width="94" height="94" viewBox="0 0 94 94" fill="none" xmlns="http://www.w3.org/2000/svg">
<g clip-path="url(#clip0_109_11)">
<path d="M54.8334 77.8633V86.1666H63.1367L83.3859 65.9175L75.0825 57.6141L54.8334 77.8633Z" fill="black"/>
<path d="M78.3334 31.3333L54.8334 7.83331H23.5C19.1917 7.83331 15.7059 11.3583 15.7059 15.6666L15.6667 78.3333C15.6667 82.6416 19.1525 86.1666 23.4609 86.1666H47V74.6125L78.3334 43.2791V31.3333ZM50.9167 35.25V13.7083L72.4584 35.25H50.9167Z" fill="black"/>
<path d="M88.9475 54.8333L86.1667 52.0525C84.6392 50.525 82.1717 50.525 80.6442 52.0525L77.8633 54.8333L86.1667 63.1367L88.9475 60.3558C90.475 58.8283 90.475 56.3608 88.9475 54.8333Z" fill="black"/>
</g>
<defs>
<clipPath id="clip0_109_11">
<rect width="94" height="94" fill="white"/>
</clipPath>
</defs>
</svg>
